<svg width="32" height="32" viewBox="0 0 32 32" fill="none" xmlns="http://www.w3.org/2000/svg">
  <!-- Círculo externo -->
  <circle cx="16" cy="16" r="14" fill="url(#gradient)" stroke="url(#borderGradient)" stroke-width="1"/>
  
  <!-- Circuitos internos -->
  <g fill="white" opacity="0.9">
    <!-- Nó central superior -->
    <circle cx="16" cy="8" r="1.5"/>
    
    <!-- Nós laterais -->
    <circle cx="10" cy="14" r="1.2"/>
    <circle cx="22" cy="14" r="1.2"/>
    
    <!-- Nós inferiores -->
    <circle cx="12" cy="22" r="1"/>
    <circle cx="20" cy="22" r="1"/>
    
    <!-- Linhas conectoras -->
    <path 
      d="M16 9.5 L16 11 M15 11 L17 11 M15 11 L10 14 M17 11 L22 14 M10 15.2 L10 17 M22 15.2 L22 17 M10 17 L12 21 M22 17 L20 21" 
      stroke="white" 
      stroke-width="0.8" 
      stroke-linecap="round"
      fill="none"
      opacity="0.8"
    />
  </g>
  
  <!-- Gradientes -->
  <defs>
    <linearGradient id="gradient" x1="0%" y1="0%" x2="100%" y2="100%">
      <stop offset="0%" stop-color="#3b82f6"/>
      <stop offset="50%" stop-color="#1d4ed8"/>
      <stop offset="100%" stop-color="#1e40af"/>
    </linearGradient>
    <linearGradient id="borderGradient" x1="0%" y1="0%" x2="100%" y2="100%">
      <stop offset="0%" stop-color="#60a5fa"/>
      <stop offset="100%" stop-color="#3b82f6"/>
    </linearGradient>
  </defs>
</svg>
